<svg xmlns="http://www.w3.org/2000/svg" viewBox="0 0 512 512">
  <defs>
    <linearGradient id="bg" x1="0%" y1="0%" x2="100%" y2="100%">
      <stop offset="0%" style="stop-color:#3B82F6"/>
      <stop offset="100%" style="stop-color:#2563EB"/>
    </linearGradient>
  </defs>
  <!-- Background circle -->
  <circle cx="256" cy="256" r="256" fill="url(#bg)"/>
  <!-- Shield icon -->
  <path fill="white" d="M256 100c-50 0-100 20-130 35v125c0 80 55 145 130 165 75-20 130-85 130-165V135c-30-15-80-35-130-35zm55 135l-65 65-35-35c-8-8-8-20 0-28s20-8 28 0l7 7 37-37c8-8 20-8 28 0s8 20 0 28z"/>
</svg>
